<svg id="svg" version="1.1" xmlns="http://www.w3.org/2000/svg" xmlns:xlink="http://www.w3.org/1999/xlink" width="400" height="400" viewBox="0, 0, 400,400"><g id="svgg"><path id="path0" d="M19.258 128.508 C 15.244 133.611,16.299 134.459,40.800 145.853 C 52.460 151.276,70.372 159.605,80.604 164.362 L 99.208 173.013 96.108 176.375 C 94.403 178.225,92.405 180.659,91.668 181.784 L 90.327 183.830 64.564 171.853 C 25.964 153.908,27.657 154.449,25.159 159.280 C 22.625 164.180,23.189 164.557,55.454 179.479 C 78.188 189.994,84.824 193.387,84.543 194.351 C 84.342 195.038,83.703 197.400,83.123 199.600 C 82.542 201.800,82.003 203.709,81.924 203.843 C 81.845 203.977,73.958 200.464,64.397 196.035 C 42.051 185.685,42.524 185.761,40.112 192.104 C 38.771 195.633,40.496 196.802,61.118 206.346 L 80.800 215.455 80.800 218.161 C 80.800 269.630,152.251 293.103,184.396 252.193 C 222.627 203.538,169.706 136.847,113.850 163.291 L 108.900 165.634 66.599 146.017 C 21.745 125.217,21.824 125.246,19.258 128.508 M154.974 166.776 C 195.561 179.598,203.332 234.511,167.894 258.071 C 133.564 280.893,87.693 256.602,87.693 215.600 C 87.693 180.759,121.523 156.209,154.974 166.776 M207.645 170.578 C 204.458 175.129,207.020 179.026,213.418 179.361 C 220.834 179.748,220.176 182.705,212.600 183.037 C 207.630 183.254,207.200 183.414,207.200 185.045 C 207.200 187.693,218.810 187.456,220.990 184.764 C 224.514 180.413,221.856 176.178,215.390 175.839 C 208.068 175.456,208.449 173.089,215.952 172.350 C 220.738 171.878,221.600 171.565,221.600 170.297 C 221.600 167.832,209.396 168.078,207.645 170.578 M229.600 170.400 C 229.600 171.773,230.167 172.014,233.600 172.100 C 235.800 172.155,237.960 172.290,238.400 172.400 C 238.840 172.510,239.586 172.645,240.059 172.700 C 243.334 173.081,239.955 175.608,236.056 175.693 C 232.872 175.763,231.453 176.172,230.667 177.247 C 229.299 179.117,229.249 186.100,230.600 186.597 C 232.515 187.301,233.600 186.250,233.600 183.693 C 233.600 180.257,234.850 179.200,238.915 179.200 C 242.581 179.200,244.800 177.240,244.800 174.000 C 244.800 169.992,242.772 168.800,235.955 168.800 C 230.133 168.800,229.600 168.934,229.600 170.400 M255.691 170.600 C 253.578 173.918,250.266 185.786,251.194 186.714 C 252.799 188.319,254.665 185.999,256.751 179.800 C 259.489 171.665,259.530 171.663,262.077 179.482 C 264.193 185.980,265.341 187.431,267.732 186.626 C 268.853 186.248,263.764 170.452,262.202 169.461 C 260.190 168.183,256.858 168.766,255.691 170.600 M277.783 169.335 C 270.559 172.242,274.325 186.400,282.323 186.400 C 284.933 186.400,287.639 186.619,288.335 186.886 C 289.289 187.252,289.600 186.859,289.600 185.286 C 289.600 183.294,289.405 183.200,285.245 183.200 C 280.356 183.200,278.400 181.549,278.400 177.422 C 278.400 173.747,281.064 171.808,285.673 172.128 C 289.294 172.379,289.601 172.259,289.600 170.600 C 289.600 168.825,281.268 167.933,277.783 169.335 M298.995 170.200 C 297.257 172.143,297.194 183.480,298.912 185.198 C 300.147 186.433,300.637 186.514,306.800 186.514 C 312.639 186.514,312.800 186.469,312.800 184.837 C 312.800 183.463,312.144 183.244,307.400 183.037 C 299.224 182.678,299.264 179.719,307.451 179.362 C 315.012 179.033,315.493 175.659,308.000 175.515 C 301.827 175.397,301.600 175.343,301.600 174.000 C 301.600 172.617,301.426 172.669,307.200 172.353 C 309.620 172.221,311.870 172.087,312.200 172.056 C 312.530 172.025,312.800 171.280,312.800 170.400 C 312.800 168.144,300.988 167.973,298.995 170.200 M153.723 176.891 C 143.527 178.803,142.701 182.094,151.353 186.339 C 155.174 188.213,160.041 191.459,162.800 193.973 C 168.778 199.420,169.952 198.759,169.381 190.265 C 168.676 179.772,163.218 175.110,153.723 176.891 M108.776 186.029 C 100.585 188.554,97.865 197.050,102.189 206.600 C 104.586 211.892,105.748 211.448,109.508 203.800 C 111.293 200.170,114.556 195.220,116.759 192.800 C 123.487 185.409,120.101 182.537,108.776 186.029 M133.636 188.083 C 103.246 193.964,104.247 237.587,134.900 243.146 C 160.741 247.831,177.647 215.818,159.430 196.695 C 152.607 189.533,142.896 186.291,133.636 188.083 M207.198 205.467 C 203.881 206.575,206.727 208.741,211.792 208.963 C 218.769 209.270,220.585 212.000,213.812 212.000 C 208.338 212.000,207.031 213.207,206.577 218.680 C 206.208 223.120,206.239 223.200,208.301 223.200 C 210.087 223.200,210.400 222.852,210.400 220.865 C 210.400 216.668,211.053 216.000,215.162 216.000 C 220.877 216.000,223.696 211.173,220.519 206.827 C 219.517 205.457,210.103 204.495,207.198 205.467 M229.947 205.520 C 228.014 207.453,229.899 208.740,234.992 208.963 C 242.083 209.275,243.758 212.000,236.859 212.000 C 231.378 212.000,229.600 213.764,229.600 219.200 C 229.600 222.933,229.733 223.200,231.600 223.200 C 233.200 223.200,233.600 222.800,233.600 221.200 C 233.600 220.100,233.915 219.200,234.300 219.200 C 234.686 219.200,237.036 220.100,239.523 221.200 C 245.077 223.656,244.800 223.668,244.800 220.965 C 244.800 219.075,244.277 218.530,241.400 217.424 C 238.974 216.492,238.516 216.101,239.800 216.059 C 244.046 215.920,246.435 209.727,243.327 206.915 C 241.963 205.680,230.936 204.530,229.947 205.520 M256.600 205.453 C 252.843 205.885,251.017 218.270,254.190 221.800 C 256.191 224.027,268.000 223.856,268.000 221.600 C 268.000 219.850,267.971 219.841,261.600 219.698 C 257.681 219.611,257.172 219.403,256.944 217.800 C 256.700 216.079,256.937 216.000,262.344 216.000 C 267.844 216.000,268.000 215.945,268.000 214.000 C 268.000 212.055,267.844 212.000,262.341 212.000 C 254.118 212.000,254.353 209.326,262.608 208.963 C 267.344 208.756,268.000 208.537,268.000 207.163 C 268.000 206.304,267.550 205.553,267.000 205.495 C 264.611 205.245,258.620 205.221,256.600 205.453 M279.787 205.944 C 275.367 208.116,274.071 216.229,277.424 220.731 C 279.578 223.622,291.200 224.384,291.200 221.634 C 291.200 220.635,290.656 219.976,289.800 219.938 C 280.910 219.547,279.919 219.006,279.857 214.507 C 279.792 209.771,280.921 208.800,286.498 208.800 C 292.321 208.800,293.957 205.661,288.200 205.533 C 286.550 205.497,284.384 205.376,283.387 205.266 C 282.390 205.156,280.770 205.461,279.787 205.944 M300.200 205.365 C 298.464 205.699,298.400 206.023,298.400 214.456 L 298.400 223.200 300.400 223.200 L 302.400 223.200 302.400 214.000 C 302.400 208.940,302.310 204.849,302.200 204.909 C 302.090 204.969,301.190 205.174,300.200 205.365 M313.854 205.766 C 306.917 207.620,309.833 216.000,317.416 216.000 C 321.806 216.000,323.144 216.939,321.528 218.887 C 320.801 219.763,319.273 220.044,316.059 219.893 C 312.000 219.702,311.577 219.841,311.344 221.442 C 311.032 223.589,322.975 224.199,324.697 222.124 C 328.588 217.435,325.196 212.000,318.378 212.000 C 311.448 212.000,313.090 209.276,320.208 208.963 C 324.944 208.756,325.600 208.537,325.600 207.163 C 325.600 206.304,325.150 205.553,324.600 205.495 C 321.228 205.142,315.664 205.282,313.854 205.766 M334.046 205.420 C 333.801 205.666,333.600 209.767,333.600 214.533 L 333.600 223.200 335.600 223.200 L 337.600 223.200 337.600 214.493 C 337.600 205.967,336.446 203.021,334.046 205.420 M348.525 205.975 C 339.678 210.322,343.738 222.800,354.000 222.800 C 362.281 222.800,363.853 220.882,363.302 211.445 C 363.008 206.394,354.261 203.157,348.525 205.975 M372.528 205.807 C 369.999 207.657,370.277 222.727,372.845 223.034 C 374.764 223.263,374.797 223.166,374.629 217.834 C 374.307 207.611,375.673 206.277,377.961 214.578 C 379.893 221.591,381.069 223.200,384.258 223.200 C 388.345 223.200,388.800 222.183,388.800 213.040 L 388.800 204.800 386.800 204.800 C 384.815 204.800,384.800 204.853,384.800 212.000 C 384.800 220.523,383.959 221.127,382.028 213.992 C 379.818 205.829,376.458 202.934,372.528 205.807 M357.943 210.057 C 362.898 215.012,354.410 223.300,349.351 218.445 C 348.325 217.461,348.509 211.315,349.604 209.996 C 350.918 208.412,356.337 208.452,357.943 210.057 M169.251 226.744 C 167.465 230.663,164.865 234.491,161.617 237.982 C 154.922 245.179,156.922 247.817,167.421 245.637 C 177.722 243.499,181.044 235.073,175.874 224.200 C 173.602 219.422,172.373 219.894,169.251 226.744 M109.333 234.133 C 109.040 234.427,108.800 236.870,108.800 239.564 C 108.800 252.335,118.153 258.267,129.451 252.660 C 135.074 249.870,134.770 248.577,127.700 245.222 C 124.398 243.655,119.384 240.399,116.558 237.986 C 111.500 233.669,110.390 233.077,109.333 234.133 M321.200 241.436 C 318.447 241.985,318.168 242.892,318.152 251.356 C 318.137 259.520,318.155 259.600,320.049 259.600 C 321.905 259.600,321.965 259.401,322.091 252.800 C 322.163 249.060,322.273 245.640,322.335 245.200 C 322.545 243.721,324.136 247.280,325.670 252.661 C 328.845 263.793,336.000 262.972,336.000 251.476 C 336.000 243.432,337.407 243.995,339.946 253.056 C 341.674 259.225,342.098 260.000,343.746 260.000 C 346.030 260.000,346.036 260.265,343.562 251.565 C 339.670 237.880,332.000 236.943,332.000 250.153 C 332.000 257.453,330.998 257.616,329.247 250.600 C 327.241 242.565,325.497 240.579,321.200 241.436 M208.000 243.200 C 203.942 247.258,207.050 252.154,213.779 252.305 C 220.947 252.466,219.929 255.516,212.600 255.837 C 207.464 256.062,207.200 256.169,207.200 258.037 C 207.200 260.772,218.136 261.064,220.800 258.400 C 224.906 254.294,221.963 248.983,215.390 248.639 C 207.828 248.244,208.307 245.600,215.941 245.600 C 221.444 245.600,221.600 245.545,221.600 243.600 C 221.600 240.830,210.690 240.510,208.000 243.200 M228.800 242.114 C 228.800 242.396,230.240 244.907,232.000 247.694 C 234.515 251.677,235.200 253.535,235.200 256.380 C 235.200 259.708,235.361 260.000,237.200 260.000 C 239.019 260.000,239.200 259.692,239.203 256.600 C 239.206 254.136,239.878 252.209,241.644 249.600 C 246.501 242.424,246.767 241.599,244.221 241.606 C 242.471 241.611,241.613 242.290,240.176 244.806 C 237.912 248.771,237.522 248.770,234.895 244.800 C 233.017 241.963,228.800 240.104,228.800 242.114 M254.802 243.198 C 251.137 247.247,253.714 251.926,259.864 252.390 C 268.043 253.006,267.532 256.000,259.248 256.000 C 254.163 256.000,253.875 256.099,253.998 257.800 C 254.319 262.249,268.445 260.156,268.844 255.600 C 269.304 250.357,267.744 248.800,262.028 248.800 C 259.114 248.800,257.635 248.446,257.341 247.678 C 256.666 245.920,257.512 245.600,262.840 245.600 C 267.510 245.600,267.837 245.478,268.196 243.600 C 268.728 240.819,257.267 240.474,254.802 243.198 M275.804 243.600 C 276.072 245.001,276.706 245.600,277.920 245.600 C 279.564 245.600,279.656 245.964,279.688 252.600 C 279.721 259.162,279.831 259.616,281.461 259.856 C 283.365 260.136,283.273 260.573,283.320 251.000 C 283.346 245.912,283.453 245.600,285.180 245.600 C 286.500 245.600,287.120 245.040,287.396 243.600 C 287.777 241.606,287.759 241.600,281.600 241.600 C 275.441 241.600,275.423 241.606,275.804 243.600 M296.595 243.000 C 294.620 245.207,294.808 256.408,296.855 258.455 C 299.495 261.095,310.400 260.729,310.400 258.000 C 310.400 256.055,310.244 256.000,304.744 256.000 C 299.337 256.000,299.100 255.921,299.344 254.200 C 299.579 252.546,300.023 252.399,304.800 252.383 C 312.979 252.356,313.211 248.994,305.059 248.638 C 296.761 248.275,296.482 245.600,304.741 245.600 C 310.244 245.600,310.400 245.545,310.400 243.600 C 310.400 240.976,298.856 240.474,296.595 243.000 M353.324 243.063 C 349.584 247.196,352.342 252.013,358.615 252.304 C 363.633 252.537,364.431 252.922,363.724 254.765 C 363.364 255.704,361.997 256.000,358.025 256.000 C 352.985 256.000,352.800 256.071,352.800 258.000 C 352.800 261.023,363.022 261.051,366.036 258.036 C 370.229 253.844,367.876 249.360,361.188 248.800 C 353.523 248.158,353.805 245.600,361.541 245.600 C 367.044 245.600,367.200 245.545,367.200 243.600 C 367.200 240.927,355.661 240.480,353.324 243.063 " stroke="none" fill="#fff" fill-rule="evenodd"></path></g></svg>